<?xml version="1.0" standalone="no"?>
<!DOCTYPE svg PUBLIC "-//W3C//DTD SVG 20010904//EN"
 "http://www.w3.org/TR/2001/REC-SVG-20010904/DTD/svg10.dtd">
<svg version="1.0" xmlns="http://www.w3.org/2000/svg"
 width="200.000000pt" height="200.000000pt" viewBox="0 0 200.000000 200.000000"
 preserveAspectRatio="xMidYMid meet">
<metadata>
Created by potrace 1.11, written by Peter Selinger 2001-2013
</metadata>
<g transform="translate(0.000000,200.000000) scale(0.100000,-0.100000)"
fill="#000000" stroke="none">
<path d="M1115 1630 c-4 -6 -1 -17 5 -25 11 -14 7 -19 -12 -16 -4 0 -26 -6
-50 -14 -31 -11 -62 -35 -108 -85 -64 -69 -66 -70 -150 -90 -193 -46 -209 -51
-272 -99 -35 -26 -97 -70 -139 -98 -161 -109 -207 -173 -222 -314 -9 -77 25
-95 39 -21 l8 37 8 -35 c20 -87 12 -128 -61 -315 -39 -99 -67 -183 -62 -188 4
-4 56 -6 116 -5 l108 3 12 57 c15 77 27 85 24 18 -1 -30 -1 -61 0 -68 1 -10
27 -12 109 -10 l107 3 6 85 c3 47 9 104 13 128 7 38 10 42 29 36 12 -4 44 -6
70 -5 l48 1 -6 -107 c-4 -60 -7 -110 -7 -113 -1 -28 6 -30 92 -30 l90 0 6 27
c34 152 51 170 53 56 0 -36 3 -69 6 -74 10 -14 213 -11 217 3 3 7 1 31 -3 53
-16 88 -21 135 -25 275 -4 121 -1 153 13 195 19 52 24 55 83 42 73 -16 77 -34
21 -86 -77 -71 -96 -133 -69 -223 15 -51 68 -98 111 -98 33 0 97 32 97 49 0
19 -20 21 -51 6 -58 -31 -113 5 -125 81 -9 64 -1 85 67 159 41 46 58 72 54 83
-3 10 12 -1 34 -23 23 -21 41 -42 41 -45 0 -3 -25 -21 -55 -40 -85 -54 -111
-121 -67 -172 20 -23 25 -23 61 8 l30 25 7 -25 c8 -32 31 -41 39 -15 7 22 -17
67 -41 76 -9 3 -28 -4 -44 -16 -17 -12 -31 -17 -35 -11 -11 18 26 64 86 108
l60 43 46 -16 c127 -43 230 -25 313 55 76 74 89 180 36 294 -43 95 -107 137
-211 139 -48 2 -60 -1 -63 -14 -2 -13 10 -20 49 -29 151 -36 201 -242 75 -307
-28 -15 -139 -24 -150 -12 -3 3 -2 27 3 54 18 124 -45 258 -225 473 -58 69
-62 78 -44 82 12 3 21 8 21 13 -1 4 -1 12 -1 18 0 7 -17 8 -51 4 l-50 -7 15
25 c14 21 14 26 2 36 -14 12 -37 -2 -49 -31 -4 -9 -13 -4 -27 15 -22 28 -44
35 -55 17z m96 -69 c8 -1 161 -187 219 -266 66 -89 102 -176 107 -255 5 -77
-4 -97 -36 -81 -25 14 -48 56 -59 108 -7 34 -11 38 -37 36 -44 -4 -70 -35 -69
-86 0 -23 4 -51 9 -62 7 -17 6 -18 -6 -8 -8 6 -43 21 -78 33 -59 20 -64 20
-82 4 -40 -36 -54 -100 -54 -254 0 -133 3 -178 21 -290 l7 -40 -70 0 -70 0 -6
77 c-8 129 -52 203 -118 203 -15 0 -61 -7 -101 -16 -116 -24 -141 -22 -205 21
-69 46 -114 52 -148 22 -31 -28 -145 -250 -145 -283 0 -23 -2 -24 -70 -24 -38
0 -70 4 -70 8 0 4 27 77 61 162 61 156 70 201 54 285 -11 58 -16 67 -36 62
-22 -6 -23 2 -7 55 15 51 82 126 156 174 31 20 95 65 142 99 80 58 136 84 220
100 76 14 86 16 122 26 36 9 83 47 123 99 31 40 78 69 124 76 22 4 41 10 41
15 0 6 27 7 61 0z m630 -423 c16 -31 22 -62 23 -114 1 -63 -2 -75 -27 -108
-78 -102 -204 -122 -338 -55 -75 37 -136 124 -123 174 9 36 21 31 34 -13 14
-46 25 -60 70 -94 56 -42 181 -56 252 -29 36 13 75 55 94 99 16 39 14 105 -5
155 -16 41 -4 32 20 -15z m-1310 -468 c22 -12 37 -25 35 -29 -8 -12 -23 -138
-25 -213 -1 -28 -1 -28 -77 -28 -41 0 -73 4 -70 9 3 4 6 44 7 87 1 81 25 155
59 181 20 17 25 16 71 -7z m388 -48 c21 -16 21 -19 7 -53 -8 -20 -23 -66 -32
-103 l-16 -66 -55 0 -55 0 6 78 c2 42 5 91 5 109 1 28 6 34 34 42 50 14 83 13
106 -7z"/>
<path d="M1054 1474 c-38 -20 -51 -40 -74 -114 -18 -58 -26 -130 -21 -197 2
-33 30 -56 62 -49 20 4 34 -1 54 -19 30 -29 63 -32 106 -10 16 9 37 14 47 13
11 -2 17 4 17 17 0 26 -46 32 -77 11 -31 -22 -45 -20 -81 10 -23 19 -38 24
-59 20 -31 -6 -32 -5 -29 79 2 57 26 149 47 183 13 19 23 23 57 20 33 -2 42 1
45 15 2 9 2 17 0 17 -2 0 -17 4 -35 9 -22 7 -39 5 -59 -5z"/>
</g>
</svg>
